
<svg version="1.0" xmlns="http://www.w3.org/2000/svg"
 width="40px" height="40px" viewBox="0 0 500.000000 500.000000"
 preserveAspectRatio="xMidYMid meet">

<g transform="translate(0.000000,500.000000) scale(0.100000,-0.100000)"
fill="#000000" stroke="none">
<path d="M1950 4083 c-142 -56 -220 -142 -256 -283 -12 -48 -15 -93 -12 -175
4 -100 8 -117 40 -185 43 -93 124 -180 200 -215 74 -35 191 -35 264 -1 172 80
266 293 225 511 -24 132 -125 276 -229 327 -36 18 -67 23 -132 25 -47 1 -92 0
-100 -4z"/>
<path d="M2843 4074 c-59 -21 -163 -120 -201 -192 -81 -152 -83 -358 -5 -492
39 -66 105 -133 160 -160 41 -21 62 -25 143 -25 105 0 145 14 227 82 161 130
207 430 97 621 -38 64 -110 131 -171 158 -63 28 -181 32 -250 8z"/>
<path d="M1178 3585 c-119 -33 -201 -125 -234 -264 -49 -203 55 -435 234 -523
58 -29 76 -33 147 -33 67 0 89 5 137 28 139 68 207 222 180 407 -28 196 -148
341 -317 386 -60 16 -85 16 -147 -1z"/>
<path d="M3675 3586 c-73 -18 -113 -42 -173 -100 -243 -234 -181 -657 105
-716 202 -42 404 117 453 358 56 275 -149 519 -385 458z"/>
<path d="M2340 3115 c-81 -18 -127 -34 -205 -73 -114 -56 -150 -86 -351 -281
-106 -102 -239 -231 -297 -286 -199 -189 -277 -363 -277 -613 0 -172 70 -378
165 -487 19 -22 35 -43 35 -47 0 -21 156 -135 235 -173 173 -83 293 -98 505
-64 202 32 497 33 682 1 156 -27 216 -27 337 -2 276 57 489 247 582 520 29 84
33 110 37 230 4 143 -6 210 -48 324 -39 102 -131 226 -248 333 -58 54 -179
171 -269 260 -180 179 -252 235 -375 292 -160 75 -354 100 -508 66z m291 -211
c7 -9 15 -46 17 -83 2 -36 8 -70 12 -74 11 -12 162 -77 178 -77 8 0 34 18 59
40 67 59 83 55 181 -42 52 -51 82 -89 82 -103 0 -12 -20 -45 -45 -74 -25 -29
-45 -54 -45 -57 0 -2 11 -32 24 -66 13 -35 27 -71 30 -81 7 -22 39 -34 115
-43 49 -5 62 -10 68 -28 10 -30 4 -239 -8 -251 -5 -5 -44 -14 -86 -20 l-77
-11 -19 -49 c-11 -28 -26 -64 -33 -82 -20 -45 -19 -49 31 -102 26 -28 45 -58
45 -71 0 -31 -155 -190 -186 -190 -12 0 -47 20 -77 45 -56 45 -75 52 -93 37
-5 -5 -36 -19 -69 -32 -33 -13 -65 -27 -71 -32 -6 -4 -14 -37 -16 -71 -9 -107
-9 -107 -148 -107 -143 0 -150 5 -150 108 l0 63 -47 19 c-27 11 -65 29 -86 40
-22 11 -46 20 -54 20 -9 0 -38 -20 -64 -45 -28 -26 -58 -45 -71 -45 -30 0
-188 156 -188 185 0 12 8 30 18 41 9 10 31 36 48 57 l31 38 -17 37 c-10 20
-23 55 -31 77 -7 22 -17 45 -22 50 -4 6 -42 15 -84 22 -41 6 -80 16 -85 21 -6
6 -12 57 -15 114 -6 140 0 151 92 161 92 10 92 10 104 54 6 21 22 60 36 87
l24 48 -49 57 c-28 32 -50 66 -50 77 0 27 159 184 187 184 12 0 45 -20 73 -45
28 -25 53 -45 56 -45 5 0 147 64 174 79 10 6 17 31 21 81 7 97 12 100 155 100
90 0 114 -3 125 -16z"/>
<path d="M2418 2501 c-20 -4 -65 -22 -100 -39 -277 -136 -306 -529 -51 -698
170 -113 386 -94 524 46 198 200 132 544 -127 661 -69 32 -177 45 -246 30z
m188 -233 c132 -89 121 -281 -20 -355 -77 -40 -200 -8 -250 66 -59 87 -56 173
11 250 46 54 77 69 149 70 54 1 68 -3 110 -31z"/>
</g>
</svg>
